<?xml version="1.0" encoding="UTF-8" standalone="no"?>
<!DOCTYPE svg PUBLIC "-//W3C//DTD SVG 1.1//EN" "http://www.w3.org/Graphics/SVG/1.1/DTD/svg11.dtd">
<svg width="100%" height="100%" viewBox="0 0 40 50" version="1.1" xmlns="http://www.w3.org/2000/svg" xmlns:xlink="http://www.w3.org/1999/xlink" xml:space="preserve" xmlns:serif="http://www.serif.com/" style="fill-rule:evenodd;clip-rule:evenodd;stroke-linejoin:round;stroke-miterlimit:1.41421;">
    <g id="Artboard1" transform="matrix(1,0,0,1,-18,-2)">
        <rect x="18" y="2" width="40" height="50" style="fill:none;"/>
        <g id="Layer_2_1_" transform="matrix(0.836734,0,0,0.836734,11.0403,3.90688)">
            <path d="M25.927,26.464C30.088,30.625 32.897,27.55 35.968,30.623C38.205,32.86 38.162,36.379 35.968,38.574C33.771,40.77 30.219,40.779 28.016,38.574C25.11,35.67 27.296,31.974 23.857,28.534C20.418,25.095 16.695,27.254 13.817,24.375C11.621,22.179 11.612,18.628 13.817,16.423C16.682,13.558 20.418,15.704 23.857,12.264C27.297,8.825 25.111,5.129 28.016,2.224C30.221,0.02 33.771,0.028 35.968,2.224C38.845,5.102 36.686,8.824 40.126,12.264C43.565,15.705 47.262,13.519 50.166,16.423C52.37,18.628 52.362,22.179 50.166,24.375C47.971,26.571 44.453,26.612 42.214,24.375C39.143,21.303 42.217,18.496 38.055,14.334C34.705,10.984 29.276,10.984 25.926,14.334C22.575,17.683 22.636,23.173 25.927,26.464Z" style="fill-rule:nonzero;"/>
        </g>
        <g id="Layer_4" transform="matrix(0.836734,0,0,0.836734,11.0403,3.90688)">
            <path d="M38.056,28.535C33.895,24.373 31.087,27.448 28.015,24.375C25.777,22.137 25.82,18.619 28.015,16.424C30.21,14.228 33.762,14.22 35.966,16.424C38.871,19.329 36.686,23.025 40.125,26.465C43.565,29.904 47.288,27.745 50.165,30.623C52.361,32.821 52.369,36.371 50.165,38.576C47.301,41.44 43.565,39.295 40.125,42.736C36.684,46.174 38.871,49.869 35.966,52.775C33.761,54.979 30.212,54.97 28.015,52.775C25.136,49.896 27.295,46.173 23.855,42.735C20.417,39.293 16.721,41.479 13.816,38.575C11.612,36.369 11.62,32.818 13.816,30.623C16.012,28.429 19.53,28.386 21.768,30.623C24.839,33.694 21.765,36.502 25.926,40.665C29.277,44.014 34.705,44.014 38.056,40.665C41.405,37.315 41.347,31.826 38.056,28.535Z" style="fill:rgb(102,0,153);fill-rule:nonzero;"/>
        </g>
    </g>
</svg>
